<?xml version="1.0" standalone="no"?>
<!DOCTYPE svg PUBLIC "-//W3C//DTD SVG 20010904//EN"
 "http://www.w3.org/TR/2001/REC-SVG-20010904/DTD/svg10.dtd">
<svg version="1.0" xmlns="http://www.w3.org/2000/svg"
 width="1664.000000pt" height="928.000000pt" viewBox="0 0 1664.000000 928.000000"
 preserveAspectRatio="xMidYMid meet">

<g transform="translate(0.000000,928.000000) scale(0.100000,-0.100000)"
fill="#000000" stroke="none">
<path d="M8010 8434 c-149 -19 -426 -87 -565 -139 -486 -183 -929 -536 -1219
-972 -465 -702 -554 -1579 -239 -2378 60 -153 178 -394 197 -401 6 -2 520 -3
1141 -2 l1130 3 -60 39 c-33 21 -78 50 -99 65 l-39 26 -276 5 -276 5 -12 125
c-18 197 -33 559 -35 885 -3 335 -5 321 72 475 53 105 94 149 204 217 50 31
102 65 116 75 14 10 73 27 135 39 124 24 155 37 239 103 65 51 71 52 192 35
70 -10 92 -9 153 6 75 18 89 27 68 43 -31 25 -127 71 -177 85 -32 9 -67 28
-80 42 -54 58 -86 69 -187 67 -51 -2 -93 0 -93 3 0 3 14 11 32 18 l32 13 -48
36 c-80 62 -124 74 -220 60 -98 -14 -156 -15 -176 -2 -13 8 -12 11 5 24 34 25
1 43 -130 72 -142 31 -211 29 -301 -9 -34 -14 -97 -30 -140 -36 -134 -17 -169
-40 -94 -62 22 -7 40 -16 40 -20 0 -24 -52 -34 -180 -34 -122 0 -138 -2 -170
-22 -19 -13 -59 -34 -87 -47 -29 -14 -53 -29 -53 -35 0 -12 83 -38 151 -47 27
-4 52 -10 55 -15 7 -12 -28 -18 -136 -22 -75 -3 -105 -8 -140 -26 -55 -29 -65
-42 -43 -58 15 -11 6 -18 -65 -50 -45 -21 -81 -42 -79 -48 2 -5 26 -18 53 -29
42 -16 67 -17 181 -13 l133 6 82 -69 c65 -56 101 -77 174 -106 51 -19 99 -41
108 -47 30 -23 183 -238 221 -312 l38 -75 5 -266 c5 -258 -6 -568 -30 -846
l-11 -138 -428 0 -427 0 -66 124 c-151 285 -238 528 -281 786 -26 150 -31 429
-10 593 43 358 205 740 434 1027 75 94 253 271 343 342 609 479 1436 570 2123
233 309 -151 540 -342 752 -621 197 -259 336 -593 390 -939 24 -152 24 -481 0
-620 -34 -194 -89 -376 -167 -557 -32 -72 -125 -262 -459 -942 -95 -191 -171
-349 -169 -351 2 -2 35 -5 73 -6 52 -3 69 -1 68 9 -2 6 2 12 7 12 6 0 10 11
10 24 0 13 7 26 15 29 8 4 21 22 29 42 9 20 22 43 31 51 8 9 13 20 9 25 -3 5
-2 9 3 8 18 -3 33 2 30 10 -3 11 80 101 94 101 5 0 9 4 9 10 0 18 51 60 76 62
13 1 24 7 24 12 0 5 3 6 6 3 9 -8 85 34 79 43 -2 4 9 6 25 5 17 -1 30 1 30 4
0 3 23 7 51 9 29 2 60 7 70 12 23 13 92 136 218 387 181 362 259 597 312 933
19 118 23 185 23 365 1 357 -54 649 -185 977 -192 485 -583 942 -1040 1216
-268 161 -608 282 -920 328 -162 23 -517 28 -679 8z m-310 -1663 c0 -33 -58
-121 -79 -121 -10 0 -61 83 -61 98 0 6 28 15 63 20 34 5 65 10 70 11 4 0 7 -3
7 -8z m114 -7 l48 -17 -6 -39 c-6 -39 -16 -59 -58 -126 -15 -25 -22 -58 -28
-130 -6 -97 -6 -97 -65 -187 l-58 -90 -12 35 c-7 19 -34 71 -59 115 -30 51
-46 91 -46 113 0 38 33 91 108 173 53 58 82 107 82 137 0 37 21 41 94 16z
m-282 -26 c-8 -8 -17 -8 -34 0 -22 10 -21 11 12 11 26 1 31 -2 22 -11z m432
-4 c25 -4 46 -10 46 -15 0 -9 -121 -71 -128 -65 -2 3 -1 23 3 45 7 44 8 44 79
35z m182 -49 c-14 -38 -109 -166 -138 -188 -18 -13 -68 -42 -110 -65 l-78 -41
0 72 c0 115 14 133 137 184 102 41 127 49 172 52 17 1 22 -3 17 -14z m-580
-29 l16 -33 -52 -67 c-28 -36 -55 -66 -59 -66 -13 0 -131 158 -131 175 0 3 30
6 68 6 37 1 81 5 97 9 17 4 33 8 38 9 4 0 15 -14 23 -33z m694 -8 c25 -5 74
-6 110 -2 64 7 65 6 47 -13 -36 -40 -111 -71 -211 -88 -54 -8 -100 -14 -102
-13 -1 2 16 34 38 71 31 53 44 67 56 61 10 -3 37 -11 62 -16z m-891 -110 c54
-72 123 -189 166 -280 37 -78 57 -180 37 -192 -10 -6 -183 201 -239 287 -18
28 -40 72 -49 99 -12 37 -26 57 -55 76 -47 33 -48 42 -6 43 17 1 43 5 57 9 43
14 48 11 89 -42z m-236 15 c72 -40 105 -73 121 -120 9 -26 16 -50 16 -54 0
-10 -136 36 -169 57 -42 27 -141 108 -141 116 0 21 135 22 173 1z"/>
<path d="M8872 6105 c0 -16 2 -22 5 -12 2 9 2 23 0 30 -3 6 -5 -1 -5 -18z"/>
<path d="M9035 5862 c6 -6 28 -18 50 -27 22 -9 36 -12 30 -6 -5 5 -28 17 -50
26 -22 9 -35 12 -30 7z"/>
<path d="M9206 5740 c32 -33 61 -55 63 -49 4 14 -89 108 -108 109 -7 0 13 -27
45 -60z"/>
<path d="M9288 5570 c-45 -38 -64 -95 -73 -220 -3 -47 -8 -105 -10 -130 -4
-36 1 -26 26 50 16 52 35 113 42 135 14 48 32 71 41 52 4 -6 4 -1 0 13 -9 36
-5 73 7 81 6 3 9 16 7 28 -3 21 -4 21 -40 -9z"/>
<path d="M8080 5398 c0 -44 4 -68 13 -71 10 -4 10 -6 0 -6 -18 -1 -16 -21 2
-21 11 0 14 -7 10 -23 -8 -31 21 -59 37 -36 8 11 9 11 4 -3 -3 -10 -1 -20 4
-23 6 -4 10 -2 10 3 0 5 11 12 25 14 18 4 25 1 25 -10 0 -9 7 -13 18 -10 20 6
44 -15 34 -28 -3 -5 4 1 17 13 l24 22 -83 78 c-46 43 -96 98 -111 123 l-29 45
0 -67z"/>
<path d="M8101 5204 c0 -11 3 -14 6 -6 3 7 2 16 -1 19 -3 4 -6 -2 -5 -13z"/>
<path d="M5716 4364 c-3 -9 -4 -20 0 -25 3 -5 295 -9 705 -9 l699 0 0 -370 0
-370 -741 0 -741 0 5 33 c3 17 9 71 13 119 6 80 5 87 -14 97 -30 16 -117 13
-160 -4 -104 -44 -112 -76 -112 -467 0 -342 2 -356 63 -402 28 -22 49 -28 116
-33 81 -6 81 -6 81 -34 0 -26 -3 -29 -34 -29 -60 0 -66 -6 -66 -69 0 -95 1
-95 98 -117 l87 -19 10 -75 10 -75 60 -3 c79 -4 103 3 111 33 3 14 9 25 13 25
20 0 269 -52 289 -60 18 -8 21 -15 16 -35 -3 -14 -3 -36 0 -50 5 -21 13 -25
67 -31 53 -6 62 -10 71 -33 98 -242 210 -342 416 -371 91 -13 172 3 270 52 92
45 167 118 216 208 32 58 59 176 52 228 -3 20 -3 29 0 19 6 -20 43 -17 119 9
l40 14 38 -42 c56 -64 379 -552 475 -718 195 -339 322 -670 326 -852 0 -32 3
-58 6 -58 3 0 44 64 91 143 47 78 130 216 185 307 55 91 120 199 144 240 24
41 88 147 142 235 216 354 378 628 374 633 -2 1 -167 3 -366 2 -253 0 -367 -4
-377 -12 -7 -6 -44 -61 -82 -122 -38 -61 -80 -124 -92 -140 l-22 -28 -19 23
c-19 24 -57 86 -167 264 l-61 100 573 5 572 5 37 23 c35 22 41 23 115 12 132
-18 120 -7 125 -109 5 -76 11 -102 40 -163 85 -180 245 -282 439 -280 226 1
454 199 466 401 2 31 0 50 -3 44 -7 -17 -26 -16 -49 1 -13 9 -21 32 -26 74 -9
80 -56 179 -114 241 -45 48 -160 131 -182 131 -15 0 -73 49 -73 61 0 13 59 11
111 -5 190 -58 315 -204 345 -402 l7 -46 46 4 c47 5 226 78 263 107 13 11 22
33 25 63 6 55 -4 109 -16 89 -11 -17 -47 -6 -55 17 -3 9 -9 23 -12 30 -4 7 2
12 16 12 12 0 18 5 15 10 -4 6 5 10 19 10 14 0 26 3 26 6 0 4 -19 23 -42 43
-23 20 -50 44 -60 54 -12 11 -34 17 -63 17 -35 0 -52 6 -73 25 -38 35 -43 31
-27 -16 23 -64 20 -81 -12 -77 -22 2 -28 9 -29 27 -1 14 -10 30 -20 37 -38 26
-55 49 -65 88 -18 66 -50 134 -76 158 -24 23 -28 23 -371 28 -347 5 -347 5
-302 23 41 16 77 18 373 15 364 -3 343 -8 312 66 -8 20 -22 37 -30 37 -8 1
-19 3 -25 4 -5 1 -230 3 -500 4 l-490 1 0 41 0 41 603 -4 c577 -4 605 -5 677
-26 84 -24 107 -22 33 2 -79 26 -367 82 -728 140 -187 30 -362 59 -390 65 -40
7 -53 6 -67 -6 -9 -8 -26 -13 -39 -11 -17 2 -32 26 -74 118 -28 63 -99 214
-157 335 -59 121 -108 231 -110 245 -3 28 29 23 -318 51 -114 10 -529 14
-1571 16 -1295 3 -1417 2 -1423 -13z m2424 -404 l0 -370 -495 0 -495 0 0 370
0 370 495 0 495 0 0 -370z m80 0 l0 -370 -25 0 -25 0 0 370 0 370 25 0 25 0 0
-370z m564 347 c120 -10 182 -19 191 -29 7 -7 72 -134 144 -283 128 -264 131
-271 131 -337 0 -63 -2 -68 -24 -74 -15 -4 -35 3 -60 20 -34 23 -35 26 -18 35
24 13 43 83 32 119 -24 80 -203 443 -232 468 -12 12 -32 24 -43 28 -12 3 -128
10 -260 16 -256 10 -306 6 -326 -31 -7 -14 -10 -109 -10 -283 1 -236 3 -263
20 -286 l18 -25 229 -6 c126 -4 280 -7 342 -8 105 -1 112 -2 112 -21 0 -22 50
-20 -522 -24 l-258 -1 0 374 0 373 178 -5 c97 -3 257 -12 356 -20z m11 -83
c55 -3 108 -10 118 -16 10 -5 47 -69 83 -141 l65 -132 -48 -3 c-68 -4 -73 -15
-73 -148 l0 -112 -282 4 c-184 2 -285 7 -292 14 -13 13 -26 484 -15 517 4 12
16 24 26 26 19 6 255 0 418 -9z m349 -512 c-5 -14 -15 -27 -21 -30 -10 -3 -13
16 -13 75 l1 78 21 -48 c16 -37 19 -55 12 -75z m-3525 54 c-2 -3 -38 -6 -79
-7 -81 -2 -100 -7 -79 -20 10 -6 8 -9 -8 -9 -16 0 -20 5 -16 20 5 18 14 20 96
20 50 0 88 -2 86 -4z m-3 -35 c-5 -8 -56 -3 -56 5 0 2 14 4 31 4 16 0 28 -4
25 -9z m3634 -321 l0 -39 -500 -1 -500 0 0 40 0 40 388 -4 c213 -2 394 -4 402
-4 8 -1 56 2 105 6 50 4 93 6 98 4 4 -2 7 -21 7 -42z m-2130 0 l0 -40 -694 0
c-427 0 -705 4 -720 10 -28 10 -34 38 -14 58 9 9 183 12 720 12 l708 0 0 -40z
m1020 0 l0 -40 -495 0 -495 0 0 40 0 40 495 0 495 0 0 -40z m82 18 c7 -39 -2
-58 -27 -58 -19 0 -24 6 -27 35 -5 41 -2 45 28 45 15 0 23 -7 26 -22z m-1292
-489 c114 -18 215 -79 281 -169 61 -84 64 -96 28 -109 -16 -5 -29 -16 -29 -23
0 -7 -18 14 -39 47 -21 33 -64 84 -95 113 -31 30 -48 51 -37 47 12 -3 21 0 24
9 4 10 1 13 -9 9 -9 -3 -14 2 -14 15 0 21 -9 26 -72 37 -45 7 -50 -8 -10 -29
35 -20 25 -20 -29 -1 -43 16 -79 41 -79 57 0 10 1 10 80 -3z m-2 -226 c58 -24
97 -59 128 -115 25 -47 29 -63 28 -133 0 -96 -21 -143 -88 -202 -101 -89 -238
-85 -341 8 -63 59 -86 110 -86 195 0 193 184 320 359 247z m3150 -9 c98 -49
149 -143 139 -260 -3 -44 -13 -77 -31 -109 -15 -25 -29 -45 -31 -45 -7 0 2 53
14 83 14 37 14 115 0 156 l-11 32 -52 -49 c-56 -53 -117 -84 -124 -64 -2 7
-12 12 -23 12 -13 0 -19 7 -19 23 0 16 -3 18 -9 9 -5 -8 -17 -12 -26 -10 -17
3 -18 4 -2 20 11 10 13 19 7 23 -6 3 -13 -1 -17 -11 -5 -14 -8 -13 -19 7 -7
13 -10 28 -6 34 3 5 -2 4 -11 -4 -12 -9 -17 -10 -17 -2 0 7 -4 9 -10 6 -5 -3
-10 1 -10 10 0 9 5 13 10 10 6 -3 10 -1 10 4 0 6 -2 11 -4 11 -2 0 -12 3 -22
7 -12 4 -15 3 -10 -5 4 -7 1 -12 -9 -12 -9 0 -13 -4 -10 -10 3 -5 1 -10 -5
-10 -23 0 -42 -72 -36 -135 10 -96 11 -99 20 -115 8 -13 7 -13 -7 -2 -53 44
-72 164 -41 257 48 138 226 207 362 139z m-2771 -171 c-3 -10 -5 -4 -5 12 0
17 2 24 5 18 2 -7 2 -21 0 -30z"/>
<path d="M7275 4271 c-11 -5 -29 -19 -40 -31 -19 -21 -20 -34 -17 -279 4 -276
7 -292 58 -311 14 -6 181 -10 385 -10 l361 0 29 29 29 29 0 251 c0 173 -4 258
-12 276 -24 53 -37 55 -420 54 -194 0 -362 -4 -373 -8z m172 -88 c-3 -10 -5
-2 -5 17 0 19 2 27 5 18 2 -10 2 -26 0 -35z m577 25 c12 -19 15 -67 14 -255 0
-128 -1 -233 -3 -233 -1 0 -111 108 -244 240 -217 216 -265 261 -246 230 3 -5
3 -10 -2 -10 -4 0 -9 -12 -10 -27 -1 -19 1 -22 8 -12 7 11 9 11 9 -3 0 -9 -4
-20 -10 -23 -5 -3 -10 -12 -9 -18 0 -9 2 -9 6 1 2 6 9 12 14 12 6 0 6 -7 0
-19 -6 -10 -7 -21 -3 -25 3 -4 -1 -4 -10 -1 -11 4 -18 0 -21 -12 -3 -10 -5 26
-6 80 l-1 97 250 0 c248 0 250 0 264 -22z"/>
<path d="M7898 4032 c-5 -17 7 -35 54 -82 33 -34 62 -59 65 -57 6 7 -17 89
-29 104 -6 7 -14 10 -19 7 -5 -3 -9 0 -9 7 0 7 -8 9 -21 6 -14 -4 -22 1 -28
16 l-8 21 -5 -22z"/>
<path d="M7210 2740 c0 -5 5 -10 11 -10 5 0 7 5 4 10 -3 6 -8 10 -11 10 -2 0
-4 -4 -4 -10z"/>
<path d="M6969 2511 c-54 -55 -108 -84 -159 -84 -19 0 -71 16 -115 35 l-80 35
-3 -36 c-11 -117 90 -220 216 -221 64 0 106 17 150 61 39 39 57 71 66 120 6
37 -10 140 -22 138 -4 0 -28 -22 -53 -48z"/>
<path d="M5988 4264 c-15 -8 -32 -23 -38 -34 -14 -26 -13 -501 1 -533 6 -12
19 -29 30 -35 28 -18 995 -20 1028 -3 45 24 51 63 51 311 0 251 -4 275 -55
298 -19 9 -155 12 -508 12 -406 -1 -486 -3 -509 -16z m1010 -46 c15 -15 17
-365 2 -388 -5 -8 -10 -12 -12 -10 -2 3 -8 14 -15 25 -6 11 -16 19 -21 18 -10
-2 -97 82 -297 286 l-80 81 206 0 c146 0 208 -3 217 -12z"/>
<path d="M10390 3301 c0 -38 13 -50 56 -51 21 0 14 59 -9 75 -35 25 -47 19
-47 -24z"/>
</g>
</svg>
